<?xml version="1.0" encoding="UTF-8"?>
<!DOCTYPE svg PUBLIC "-//W3C//DTD SVG 1.1//EN" "http://www.w3.org/Graphics/SVG/1.1/DTD/svg11.dtd">
<svg xmlns="http://www.w3.org/2000/svg" version="1.1" width="2181px" height="2357px" style="shape-rendering:geometricPrecision; text-rendering:geometricPrecision; image-rendering:optimizeQuality; fill-rule:evenodd; clip-rule:evenodd" xmlns:xlink="http://www.w3.org/1999/xlink">
<g><path style="opacity:1" fill="#123137" d="M 1320.5,255.5 C 1424.78,249.519 1512.62,284.186 1584,359.5C 1628.55,410.612 1655.88,469.945 1666,537.5C 1672.16,584.305 1674.16,631.305 1672,678.5C 1670.8,708.633 1668.3,738.633 1664.5,768.5C 1663.97,769.192 1663.31,769.692 1662.5,770C 1603.15,775.057 1543.81,780.224 1484.5,785.5C 1488.24,746.255 1490.57,706.922 1491.5,667.5C 1491.02,647.457 1489.86,627.457 1488,607.5C 1479.8,535.869 1443.3,484.703 1378.5,454C 1337.18,438.405 1296.18,439.405 1255.5,457C 1223.91,470.882 1197.41,491.382 1176,518.5C 1133.65,573.212 1113.49,635.378 1115.5,705C 1115.73,718.539 1116.56,732.039 1118,745.5C 1130.61,825.141 1144.94,904.475 1161,983.5C 1174.26,1052.92 1182.59,1122.92 1186,1193.5C 1191.45,1288.14 1175.95,1379.14 1139.5,1466.5C 1171.47,1529.11 1203.97,1591.44 1237,1653.5C 1355.25,1427.99 1473.25,1202.32 1591,976.5C 1591.41,976.043 1591.91,975.709 1592.5,975.5C 1646.23,1003.09 1699.56,1031.26 1752.5,1060C 1608.13,1336.56 1463.63,1613.06 1319,1889.5C 1289.83,1946.5 1260.67,2003.5 1231.5,2060.5C 1190.14,1966.62 1145.97,1873.96 1099,1782.5C 1072.92,1732.01 1046.59,1681.68 1020,1631.5C 920.896,1719.87 804.729,1759.7 671.5,1751C 559.642,1735.35 472.475,1680.85 410,1587.5C 366.877,1516.69 346.377,1439.69 348.5,1356.5C 348.722,1314.23 352.222,1272.23 359,1230.5C 364.208,1198.63 370.374,1166.96 377.5,1135.5C 435.487,1137.46 493.487,1139.13 551.5,1140.5C 541.622,1182.06 534.122,1224.06 529,1266.5C 524.879,1302.47 524.546,1338.47 528,1374.5C 540.749,1488.25 603.915,1551.75 717.5,1565C 777.539,1568.21 831.539,1551.87 879.5,1516C 899.474,1501.03 917.141,1483.69 932.5,1464C 869.047,1342.93 805.713,1221.76 742.5,1100.5C 656.865,1096.29 596.698,1055.29 562,977.5C 536.22,902.742 549.053,835.575 600.5,776C 585.333,749.5 570.167,723 555,696.5C 540.905,726.358 527.071,756.358 513.5,786.5C 512.914,786.291 512.414,785.957 512,785.5C 465.368,696.708 418.535,608.042 371.5,519.5C 407.985,524.553 444.485,530.553 481,537.5C 467.761,511.029 453.928,484.696 439.5,458.5C 469.56,441.801 499.893,425.468 530.5,409.5C 589.333,512.5 648.167,615.5 707,718.5C 775.835,707.445 834.502,726.779 883,776.5C 934.586,837.672 946.586,906.006 919,981.5C 913.875,992.252 908.375,1002.75 902.5,1013C 933.532,1072.9 964.698,1132.73 996,1192.5C 994.651,1155.68 991.318,1119.01 986,1082.5C 974.516,1010.41 962.516,938.414 950,866.5C 942.78,821.073 937.78,775.406 935,729.5C 932.702,573.971 990.202,445.804 1107.5,345C 1169.36,293.747 1240.36,263.914 1320.5,255.5 Z M 734.5,859.5 C 766.891,859.058 785.225,874.892 789.5,907C 784.95,940.218 765.95,955.885 732.5,954C 705.915,946.686 693.081,929.186 694,901.5C 698.567,878.768 712.067,864.768 734.5,859.5 Z"/></g>
<g><path style="opacity:1" fill="#f9faf9" d="M 1333.5,288.5 C 1437.3,286.985 1519.8,327.652 1581,410.5C 1617.45,465.52 1636.45,526.186 1638,592.5C 1640.14,641.241 1638.97,689.908 1634.5,738.5C 1596.83,741.778 1559.16,745.112 1521.5,748.5C 1525.56,698.809 1525.4,649.142 1521,599.5C 1510.87,520.087 1470.37,462.254 1399.5,426C 1340.85,402.077 1283.18,404.41 1226.5,433C 1180.95,458.218 1145.78,493.718 1121,539.5C 1097.6,581.448 1084.93,626.448 1083,674.5C 1081.61,703.267 1082.61,731.934 1086,760.5C 1099.6,843.086 1114.6,925.42 1131,1007.5C 1144.29,1080.09 1151.79,1153.26 1153.5,1227C 1153.51,1279.74 1146.68,1331.57 1133,1382.5C 1128.98,1397.55 1123.98,1412.22 1118,1426.5C 1089.59,1371.34 1060.92,1316.34 1032,1261.5C 1032.01,1180.92 1025.01,1100.92 1011,1021.5C 996.836,947.851 984.836,873.851 975,799.5C 951.124,654.613 986.79,526.946 1082,416.5C 1129.77,362.686 1187.93,324.519 1256.5,302C 1281.82,294.67 1307.49,290.17 1333.5,288.5 Z"/></g>
<g><path style="opacity:1" fill="#183237" d="M 523.5,426.5 C 524.552,426.351 525.552,426.517 526.5,427C 583.247,527.163 640.247,627.163 697.5,727C 697.167,727.333 696.833,727.667 696.5,728C 697.87,729.924 699.704,731.091 702,731.5C 771.503,718.446 830.169,737.779 878,789.5C 922.242,844.949 932.575,906.282 909,973.5C 903.069,987.079 895.902,999.913 887.5,1012C 1004.13,1234.75 1120.63,1457.59 1237,1680.5C 1356.92,1451.66 1476.59,1222.66 1596,993.5C 1597.05,992.483 1598.22,992.316 1599.5,993C 1645.32,1016.75 1690.99,1040.75 1736.5,1065C 1567.44,1386.95 1399.27,1709.45 1232,2032.5C 1197.52,1954.2 1160.85,1876.86 1122,1800.5C 998.471,1562.61 874.304,1325.11 749.5,1088C 670.253,1087.15 612.753,1051.65 577,981.5C 550.1,915.701 557.434,854.034 599,796.5C 604.5,790.333 610,784.167 615.5,778C 594.96,741.752 574.293,705.585 553.5,669.5C 539.57,699.458 525.737,729.458 512,759.5C 472.698,685.063 433.532,610.563 394.5,536C 394.667,535.5 394.833,535 395,534.5C 431.481,541.052 467.981,547.219 504.5,553C 488.493,523.318 472.493,493.651 456.5,464C 456.645,463.228 456.978,462.561 457.5,462C 479.721,450.392 501.721,438.559 523.5,426.5 Z M 734.5,859.5 C 712.067,864.768 698.567,878.768 694,901.5C 693.081,929.186 705.915,946.686 732.5,954C 765.95,955.885 784.95,940.218 789.5,907C 785.225,874.892 766.891,859.058 734.5,859.5 Z"/></g>
<g><path style="opacity:1" fill="#143339" d="M 521.5,433.5 C 522.822,433.33 523.989,433.663 525,434.5C 582.708,536.362 640.375,637.695 698,738.5C 771.336,722.5 832.003,743.167 880,800.5C 917.717,853.221 925.717,910.221 904,971.5C 897.781,985.611 890.281,998.944 881.5,1011.5C 999.745,1238.32 1118.25,1464.99 1237,1691.5C 1358.01,1461.48 1478.51,1231.15 1598.5,1000.5C 1599,1000.17 1599.5,999.833 1600,999.5C 1643.23,1021.86 1686.4,1044.36 1729.5,1067C 1585.54,1341.75 1441.71,1616.59 1298,1891.5C 1276.33,1934.17 1254.67,1976.83 1233,2019.5C 1192.85,1931.19 1150.51,1843.86 1106,1757.5C 988.333,1532.5 870.667,1307.5 753,1082.5C 683.826,1083.54 630.16,1055.54 592,998.5C 558.766,939.216 558.1,879.549 590,819.5C 602.307,799.856 617.474,782.689 635.5,768C 629.959,768.922 624.626,770.756 619.5,773.5C 597.081,734.996 574.914,696.33 553,657.5C 539.147,687.381 525.481,717.381 512,747.5C 475.961,679.254 439.794,611.087 403.5,543C 440.557,548.343 477.557,554.01 514.5,560C 497.119,528.739 480.119,497.239 463.5,465.5C 482.895,454.805 502.229,444.139 521.5,433.5 Z M 734.5,859.5 C 712.067,864.768 698.567,878.768 694,901.5C 693.081,929.186 705.915,946.686 732.5,954C 765.95,955.885 784.95,940.218 789.5,907C 785.225,874.892 766.891,859.058 734.5,859.5 Z"/></g>
<g><path style="opacity:1" fill="#f8f9f9" d="M 518.5,448.5 C 572.892,542.941 627.059,637.608 681,732.5C 681.688,733.332 681.521,733.998 680.5,734.5C 662.383,742.058 644.383,749.892 626.5,758C 625.365,758.749 624.365,758.583 623.5,757.5C 599.5,715.5 575.5,673.5 551.5,631.5C 538.005,661.158 524.505,690.825 511,720.5C 482.785,666.405 454.285,612.405 425.5,558.5C 461.196,563.642 497.03,569.309 533,575.5C 533.833,575.167 534.667,574.833 535.5,574.5C 516.848,539.865 498.181,505.198 479.5,470.5C 492.365,462.901 505.365,455.568 518.5,448.5 Z"/></g>
<g><path style="opacity:1" fill="#f9f9f9" d="M 683.5,740.5 C 684.496,740.414 685.329,740.748 686,741.5C 687.434,745.382 689.6,748.715 692.5,751.5C 750.281,735.402 802.281,746.235 848.5,784C 895.554,828.166 912.72,881.999 900,945.5C 893.389,969.388 882.556,991.054 867.5,1010.5C 990.667,1246.17 1113.83,1481.83 1237,1717.5C 1359.17,1483.83 1481.33,1250.17 1603.5,1016.5C 1604,1016.17 1604.5,1015.83 1605,1015.5C 1641.16,1034.32 1677.32,1053.15 1713.5,1072C 1552.7,1378.44 1392.53,1685.27 1233,1992.5C 1199.16,1916.83 1163.16,1842.16 1125,1768.5C 1003.31,1535.62 881.476,1302.79 759.5,1070C 703.857,1074.02 657.024,1055.85 619,1015.5C 578.269,965.456 568.269,909.789 589,848.5C 599.421,823.076 614.921,801.243 635.5,783C 651.694,768.968 667.694,754.801 683.5,740.5 Z M 734.5,859.5 C 712.067,864.768 698.567,878.768 694,901.5C 693.081,929.186 705.915,946.686 732.5,954C 765.95,955.885 784.95,940.218 789.5,907C 785.225,874.892 766.891,859.058 734.5,859.5 Z"/></g>
<g><path style="opacity:1" fill="#143339" d="M 729.5,830.5 C 777.786,828.361 807.286,850.695 818,897.5C 820.121,929.755 807.954,954.922 781.5,973C 743.516,992.401 710.016,986.568 681,955.5C 660.608,925.987 659.274,895.654 677,864.5C 690.04,846.233 707.54,834.9 729.5,830.5 Z M 734.5,859.5 C 712.067,864.768 698.567,878.768 694,901.5C 693.081,929.186 705.915,946.686 732.5,954C 765.95,955.885 784.95,940.218 789.5,907C 785.225,874.892 766.891,859.058 734.5,859.5 Z"/></g>
<g><path style="opacity:1" fill="#193138" d="M 1319.5,835.5 C 1368.13,833.366 1403.63,853.7 1426,896.5C 1444.25,943.873 1435.41,985.373 1399.5,1021C 1419.86,1064.89 1440.36,1108.73 1461,1152.5C 1462.71,1159.38 1460.54,1164.55 1454.5,1168C 1373.21,1169.66 1291.88,1169.99 1210.5,1169C 1203.03,1168.25 1199.03,1164.08 1198.5,1156.5C 1218.95,1110.93 1239.95,1065.6 1261.5,1020.5C 1226.94,987.578 1217.1,948.245 1232,902.5C 1248.89,864.102 1278.06,841.769 1319.5,835.5 Z"/></g>
<g><path style="opacity:1" fill="#193237" d="M 737.5,841.5 C 779.485,843.821 802.485,865.821 806.5,907.5C 804.371,941.128 787.038,962.295 754.5,971C 727.865,975.457 706.031,967.291 689,946.5C 671.335,919.727 671.669,893.06 690,866.5C 702.791,852.19 718.625,843.856 737.5,841.5 Z M 734.5,859.5 C 712.067,864.768 698.567,878.768 694,901.5C 693.081,929.186 705.915,946.686 732.5,954C 765.95,955.885 784.95,940.218 789.5,907C 785.225,874.892 766.891,859.058 734.5,859.5 Z"/></g>
<g><path style="opacity:1" fill="#123137" d="M 733.5,847.5 C 768.182,846.37 790.349,862.37 800,895.5C 803.922,922.814 794.422,943.98 771.5,959C 742.672,972.858 717.172,968.358 695,945.5C 677.8,921.336 677.133,896.669 693,871.5C 703.627,858.444 717.127,850.444 733.5,847.5 Z M 734.5,859.5 C 712.067,864.768 698.567,878.768 694,901.5C 693.081,929.186 705.915,946.686 732.5,954C 765.95,955.885 784.95,940.218 789.5,907C 785.225,874.892 766.891,859.058 734.5,859.5 Z"/></g>
<g><path style="opacity:1" fill="#f9faf9" d="M 1319.5,860.5 C 1359.68,858.222 1388.18,875.222 1405,911.5C 1417.17,951.651 1406.51,984.318 1373,1009.5C 1369.82,1014.46 1369.82,1019.46 1373,1024.5C 1391.98,1064.29 1410.81,1104.12 1429.5,1144C 1363.5,1144.83 1297.5,1144.67 1231.5,1143.5C 1250.06,1103.38 1268.89,1063.38 1288,1023.5C 1291.27,1013.54 1288.1,1006.37 1278.5,1002C 1247.31,971.589 1241.81,937.089 1262,898.5C 1275.8,877.687 1294.96,865.02 1319.5,860.5 Z"/></g>
<g><path style="opacity:1" fill="#f9faf9" d="M 404.5,1170.5 C 439.52,1171.06 474.52,1172.06 509.5,1173.5C 498.711,1224.43 492.711,1275.93 491.5,1328C 490.807,1377.01 499.64,1424.18 518,1469.5C 547.556,1530.55 595.056,1570.39 660.5,1589C 752.404,1612.27 835.404,1594.6 909.5,1536C 923.658,1523.84 937.158,1511.01 950,1497.5C 967.578,1531.66 985.412,1565.66 1003.5,1599.5C 945.031,1655.91 875.697,1692.75 795.5,1710C 668.641,1737.37 560.475,1704.54 471,1611.5C 416.55,1548.21 387.217,1474.54 383,1390.5C 380.621,1337.18 383.954,1284.18 393,1231.5C 396.405,1211.07 400.238,1190.74 404.5,1170.5 Z"/></g>
</svg>
