<?xml version="1.0" encoding="UTF-8"?>
<!DOCTYPE svg PUBLIC "-//W3C//DTD SVG 1.1//EN" "http://www.w3.org/Graphics/SVG/1.1/DTD/svg11.dtd">
<svg xmlns="http://www.w3.org/2000/svg" version="1.1" width="96px" height="96px" style="shape-rendering:geometricPrecision; text-rendering:geometricPrecision; image-rendering:optimizeQuality; fill-rule:evenodd; clip-rule:evenodd" xmlns:xlink="http://www.w3.org/1999/xlink">
<g><path style="opacity:1" fill="#2b5c63" d="M 38.5,7.5 C 57.8106,4.57759 72.6439,11.2443 83,27.5C 91.6249,46.9514 88.4583,64.118 73.5,79C 61.6934,87.4624 48.6934,89.7957 34.5,86C 18.4267,80.0134 9.42666,68.5134 7.5,51.5C 16.8333,51.5 26.1667,51.5 35.5,51.5C 35.3347,55.1817 35.5014,58.8484 36,62.5C 41.0151,57.6519 45.8485,52.6519 50.5,47.5C 45.8485,42.3481 41.0151,37.3481 36,32.5C 35.5014,36.1516 35.3347,39.8183 35.5,43.5C 26.1667,43.5 16.8333,43.5 7.5,43.5C 9.99322,24.6781 20.3266,12.6781 38.5,7.5 Z"/></g>
</svg>
