<?xml version="1.0" encoding="UTF-8"?>
<!DOCTYPE svg PUBLIC "-//W3C//DTD SVG 1.1//EN" "http://www.w3.org/Graphics/SVG/1.1/DTD/svg11.dtd">
<svg xmlns="http://www.w3.org/2000/svg" version="1.1" width="463px" height="463px" style="shape-rendering:geometricPrecision; text-rendering:geometricPrecision; image-rendering:optimizeQuality; fill-rule:evenodd; clip-rule:evenodd" xmlns:xlink="http://www.w3.org/1999/xlink">
<g><path style="opacity:1" fill="#2a5c63" d="M 84.5,381.5 C 82.1667,379.833 80.1667,377.833 78.5,375.5C 79.2389,375.631 79.9056,375.464 80.5,375C 44.4597,336.057 24.9597,289.89 22,236.5C 21.7216,237.416 21.2216,238.082 20.5,238.5C 20.5,234.167 20.5,229.833 20.5,225.5C 21.2216,225.918 21.7216,226.584 22,227.5C 23.1137,195.377 30.947,165.044 45.5,136.5C 45.0302,135.537 44.3635,135.537 43.5,136.5C 43.6596,134.847 44.3263,133.514 45.5,132.5C 45.3932,134.379 45.8932,134.712 47,133.5C 76.3137,80.5322 120.147,45.6989 178.5,29C 177.944,28.6174 177.611,28.1174 177.5,27.5C 178.167,27.5 178.833,27.5 179.5,27.5C 180.097,28.1386 180.93,28.472 182,28.5C 270.461,11.3136 342.794,37.6469 399,107.5C 440.614,168.459 449.614,233.792 426,303.5C 400.386,367.737 354.552,410.237 288.5,431C 221.151,448.403 159.484,436.736 103.5,396C 97.3333,390.5 91.1667,385 85,379.5C 84.5357,380.094 84.369,380.761 84.5,381.5 Z M 384.5,138.5 C 384.5,138.833 384.5,139.167 384.5,139.5C 412.37,188.214 417.204,239.214 399,292.5C 367.62,366.958 311.453,405.958 230.5,409.5C 168.87,408.272 120.036,382.939 84,333.5C 61.2271,300.011 50.7271,263.011 52.5,222.5C 52.8035,211.043 54.1368,199.709 56.5,188.5C 66.0927,151.632 85.0927,120.632 113.5,95.5C 114.833,94.8333 115.833,93.8333 116.5,92.5C 172.016,50.1408 232.682,40.9742 298.5,65C 335.07,80.4141 363.736,104.914 384.5,138.5 Z"/></g>
<g><path style="opacity:1" fill="#03323e" d="M 177.5,27.5 C 177.611,28.1174 177.944,28.6174 178.5,29C 120.147,45.6989 76.3137,80.5322 47,133.5C 45.8932,134.712 45.3932,134.379 45.5,132.5C 74.6394,79.0482 118.639,44.0482 177.5,27.5 Z"/></g>
<g><path style="opacity:1" fill="#042c3a" d="M 384.5,138.5 C 363.736,104.914 335.07,80.4141 298.5,65C 232.682,40.9742 172.016,50.1408 116.5,92.5C 116.062,92.5654 115.728,92.3988 115.5,92C 164.485,53.0107 219.485,41.344 280.5,57C 325.635,70.4802 360.635,97.1469 385.5,137C 384.944,137.383 384.611,137.883 384.5,138.5 Z"/></g>
<g><path style="opacity:1" fill="#2b5c64" d="M 219.5,119.5 C 225.842,119.334 232.175,119.5 238.5,120C 239.167,121 239.833,122 240.5,123C 251.173,123.21 261.84,123.21 272.5,123C 273.167,124 273.833,125 274.5,126C 278.833,126.333 283.167,126.667 287.5,127C 288.357,127.689 289.023,128.522 289.5,129.5C 294.132,130.328 298.798,130.828 303.5,131C 304.337,132.011 304.67,133.178 304.5,134.5C 307.85,134.335 311.183,134.502 314.5,135C 316.43,137.653 319.096,138.986 322.5,139C 323.276,141.987 324.943,142.82 327.5,141.5C 330.279,144.15 333.612,145.816 337.5,146.5C 339.457,149.017 342.124,150.184 345.5,150C 347.981,154.982 351.981,157.815 357.5,158.5C 359.808,162.331 363.141,164.498 367.5,165C 374,172.167 380.833,179 388,185.5C 388.667,187.833 388.667,190.167 388,192.5C 379.856,200.976 371.356,209.142 362.5,217C 359.315,217.388 356.315,216.721 353.5,215C 348.252,209.684 342.919,204.35 337.5,199C 332.462,197.974 328.462,195.307 325.5,191C 320.154,188.333 314.821,185.666 309.5,183C 306.079,183.121 303.412,181.788 301.5,179C 296.884,179.271 292.884,177.937 289.5,175C 286.833,174.667 284.167,174.333 281.5,174C 280.833,173.333 280.167,172.667 279.5,172C 272.895,172.184 266.895,170.518 261.5,167C 239.5,166.333 217.5,166.333 195.5,167C 194.167,167.667 193.167,168.667 192.5,170C 188.5,170.333 184.5,170.667 180.5,171C 177.116,173.937 173.116,175.271 168.5,175C 164.716,177.189 161.05,179.522 157.5,182C 155.833,182.333 154.167,182.667 152.5,183C 147.179,185.666 141.846,188.333 136.5,191C 133.823,195.033 130.156,197.366 125.5,198C 119.022,204.72 112.022,210.72 104.5,216C 101.854,216.497 99.1873,216.664 96.5,216.5C 96.719,215.325 96.3857,214.325 95.5,213.5C 88.0939,206.592 80.9272,199.592 74,192.5C 73.1816,189.773 73.3483,187.106 74.5,184.5C 81.512,178.774 87.8453,172.44 93.5,165.5C 98.4725,165.19 102.139,162.857 104.5,158.5C 106.423,157.692 108.423,157.192 110.5,157C 112.5,154.667 114.5,152.333 116.5,150C 118.577,149.808 120.577,149.308 122.5,148.5C 128.072,145.229 133.739,142.063 139.5,139C 142.921,139.121 145.588,137.788 147.5,135C 150.5,134.667 153.5,134.333 156.5,134C 157.167,133 157.833,132 158.5,131C 163.155,130.501 167.821,130.334 172.5,130.5C 172.36,128.876 173.027,127.71 174.5,127C 180.401,127.286 185.734,125.953 190.5,123C 199.851,122.832 209.184,122.332 218.5,121.5C 218.863,120.817 219.196,120.15 219.5,119.5 Z"/></g>
<g><path style="opacity:1" fill="#042f40" d="M 113.5,95.5 C 85.0927,120.632 66.0927,151.632 56.5,188.5C 55.8761,188.083 55.5427,187.416 55.5,186.5C 65.3365,150.518 84.0032,120.018 111.5,95C 112.437,94.3083 113.103,94.475 113.5,95.5 Z"/></g>
<g><path style="opacity:1" fill="#022c39" d="M 52.5,222.5 C 50.7271,263.011 61.2271,300.011 84,333.5C 120.036,382.939 168.87,408.272 230.5,409.5C 311.453,405.958 367.62,366.958 399,292.5C 417.204,239.214 412.37,188.214 384.5,139.5C 385.117,139.389 385.617,139.056 386,138.5C 415.125,189.385 419.459,242.385 399,297.5C 371.322,361.163 323.156,398.663 254.5,410C 183.883,416.759 127.049,392.259 84,336.5C 58.7972,300.892 48.2972,262.892 52.5,222.5 Z"/></g>
<g><path style="opacity:1" fill="#032f3b" d="M 20.5,225.5 C 21.4643,193.972 29.131,164.305 43.5,136.5C 44.3635,135.537 45.0302,135.537 45.5,136.5C 30.947,165.044 23.1137,195.377 22,227.5C 21.7216,226.584 21.2216,225.918 20.5,225.5 Z"/></g>
<g><path style="opacity:1" fill="#2c5d64" d="M 201.5,202.5 C 221.503,202.333 241.503,202.5 261.5,203C 262.337,204.011 262.67,205.178 262.5,206.5C 267.179,206.334 271.845,206.501 276.5,207C 278.196,209.982 280.863,211.316 284.5,211C 285.167,212 285.833,213 286.5,214C 292.667,213.302 297.334,215.469 300.5,220.5C 303.08,221.549 305.746,222.216 308.5,222.5C 308.5,223.5 308.5,224.5 308.5,225.5C 310.199,225.34 311.866,225.506 313.5,226C 314.96,227.582 316.627,228.915 318.5,230C 322,234.833 326.167,239 331,242.5C 331.667,244.833 331.667,247.167 331,249.5C 322.961,257.195 315.127,265.195 307.5,273.5C 303.43,274.918 299.43,274.751 295.5,273C 292.266,269.855 289.266,266.522 286.5,263C 284.5,262.667 282.5,262.333 280.5,262C 277.243,256.78 272.41,254.28 266,254.5C 264.831,253.991 263.998,253.158 263.5,252C 260.5,251.667 257.5,251.333 254.5,251C 253.643,250.311 252.977,249.478 252.5,248.5C 238.167,247.167 223.833,247.167 209.5,248.5C 209.023,249.478 208.357,250.311 207.5,251C 204.5,251.333 201.5,251.667 198.5,252C 198.002,253.158 197.169,253.991 196,254.5C 189.59,254.28 184.757,256.78 181.5,262C 176.174,262.656 172.174,265.323 169.5,270C 166.096,270.014 163.43,271.347 161.5,274C 159.5,274.667 157.5,274.667 155.5,274C 147.124,266.029 138.958,257.863 131,249.5C 130.333,247.167 130.333,244.833 131,242.5C 136.473,237.027 141.973,231.527 147.5,226C 149.473,225.505 151.473,225.338 153.5,225.5C 153.5,224.5 153.5,223.5 153.5,222.5C 156.127,221.908 158.794,221.575 161.5,221.5C 163.983,215.566 168.649,213.066 175.5,214C 176.167,213 176.833,212 177.5,211C 180.904,210.986 183.57,209.653 185.5,207C 189.833,206.667 194.167,206.333 198.5,206C 199.365,204.641 200.365,203.474 201.5,202.5 Z"/></g>
<g><path style="opacity:1" fill="#2c5d64" d="M 213.5,282.5 C 225.171,282.333 236.838,282.5 248.5,283C 249.833,283.667 250.833,284.667 251.5,286C 253.556,286.311 255.556,286.811 257.5,287.5C 258.386,288.325 258.719,289.325 258.5,290.5C 260.527,290.338 262.527,290.505 264.5,291C 267.349,294.016 270.349,296.85 273.5,299.5C 274.544,301.768 274.711,304.101 274,306.5C 260.742,319.758 247.575,332.925 234.5,346C 231.773,346.818 229.106,346.652 226.5,345.5C 213.814,332.315 200.981,319.315 188,306.5C 187.333,304.5 187.333,302.5 188,300.5C 191.14,297.36 194.306,294.194 197.5,291C 199.167,290.667 200.833,290.333 202.5,290C 206.5,287.929 210.166,285.429 213.5,282.5 Z"/></g>
<g><path style="opacity:1" fill="#04313f" d="M 78.5,375.5 C 42.8811,337.045 23.5478,291.379 20.5,238.5C 21.2216,238.082 21.7216,237.416 22,236.5C 24.9597,289.89 44.4597,336.057 80.5,375C 79.9056,375.464 79.2389,375.631 78.5,375.5 Z"/></g>
<g><path style="opacity:1" fill="#042f3e" d="M 84.5,381.5 C 84.369,380.761 84.5357,380.094 85,379.5C 91.1667,385 97.3333,390.5 103.5,396C 159.484,436.736 221.151,448.403 288.5,431C 354.552,410.237 400.386,367.737 426,303.5C 449.614,233.792 440.614,168.459 399,107.5C 342.794,37.6469 270.461,11.3136 182,28.5C 180.93,28.472 180.097,28.1386 179.5,27.5C 257.845,10.0438 325.678,29.3771 383,85.5C 435.247,144.157 451.914,211.824 433,288.5C 414.231,348.6 376.731,392.767 320.5,421C 265.188,445.092 209.188,446.759 152.5,426C 126.895,415.383 104.228,400.55 84.5,381.5 Z"/></g>
</svg>
